<?xml version="1.0" encoding="utf-8"?>
<!-- Generator: Adobe Adobe Illustrator 29.2.0, SVG Export Plug-In . SVG Version: 6.00 Build 0)  -->
<svg version="1.1" id="Layer_1" xmlns="http://www.w3.org/2000/svg" xmlns:xlink="http://www.w3.org/1999/xlink" x="0px" y="0px"
	 width="612px" height="792px" viewBox="0 0 612 792" style="enable-background:new 0 0 612 792;" xml:space="preserve">
<style type="text/css">
	.st0{fill:#002B4B;}
	.st1{fill:#FEFEFE;}
	.st2{fill:#FCFDFD;}
	.st3{fill:#697285;}
	.st4{fill:#5B6B7E;}
	.st5{fill:#1B3956;}
	.st6{fill:#1B3A57;}
	.st7{fill:#101D3F;}
	.st8{fill:#B1B4BE;}
	.st9{fill:#8A93A2;}
	.st10{fill:#ACB0BB;}
	.st11{fill:#99A0AD;}
	.st12{fill:#C6C8D0;}
	.st13{fill:#B2B7C1;}
	.st14{fill:#C7CBD2;}
	.st15{fill:#758394;}
	.st16{fill:#54637A;}
	.st17{fill:#5D6C81;}
	.st18{fill:#536379;}
	.st19{fill:#A4AAB6;}
	.st20{fill:#E98D0B;}
	.st21{fill:#162250;}
	.st22{fill:#EA8C0C;}
	.st23{fill:#0E2143;}
	.st24{fill:#EB8E0A;}
	.st25{fill:#E98E0B;}
	.st26{fill:#17244F;}
	.st27{fill:#19244F;}
	.st28{fill:#192251;}
	.st29{fill:#111F52;}
	.st30{fill:#1A2250;}
	.st31{fill:#0F1F52;}
	.st32{fill:#1B2250;}
	.st33{fill:#152445;}
	.st34{fill:#121F40;}
	.st35{fill:#363345;}
	.st36{fill:#342F47;}
	.st37{fill:#172647;}
	.st38{fill:#001D53;}
	.st39{fill:#0E2244;}
	.st40{fill:#001857;}
	.st41{fill:#091E53;}
	.st42{fill:#001856;}
	.st43{fill:#091C54;}
	.st44{fill:#041B3E;}
	.st45{fill:#141D3B;}
	.st46{fill:#454F67;}
	.st47{fill:#1E3C58;}
	.st48{fill:#895B2B;}
	.st49{fill:#AD6F20;}
	.st50{fill:#B5B8C2;}
	.st51{fill:#F6860F;}
	.st52{fill:#916128;}
	.st53{fill:#BA761B;}
	.st54{fill:#F6860E;}
	.st55{fill:#926028;}
	.st56{fill:#F5850F;}
	.st57{fill:#AC6E20;}
	.st58{fill:#F29009;}
	.st59{fill:#EC900A;}
	.st60{fill:#795330;}
	.st61{fill:#BE7719;}
	.st62{fill:#FD9506;}
	.st63{fill:#FD9505;}
	.st64{fill:#1C264E;}
</style>
<path class="st0" d="M668.07,613.53c0.31,1.52,0.31,2.48,0.31,3.91c-2.26,2.44-0.9,5.17-1.91,7.86c-5.22,4.61-6.47,10.73-8.17,16.13
	c-2.64,8.42-6.78,15.94-11.35,23.46c-5.27,8.69-11.67,16.48-19.65,23.79c-0.54,0.59-0.77,0.81-1.41,1.29
	c-7.64,2.72-13.49,7.5-20.4,10.51c-1.34,0.58-1.36,2.08-2.29,3.55c-7.85,4.58-16.56,5.88-25.24,8.75
	c-5.86,1.36-11.37,1.16-17.33,2.05c-15.23,0.08-29.85,0.07-45.05,0.01c-2.98-0.45-5.37-1.64-8.39-0.09
	c-17.85,0.2-35.13,0.17-53,0.04c-6.07-2.39-11.56-3.08-17.71-0.17c-23.43,0.44-46.26,0.23-69.7,0.21
	c-4.04-0.99-7.43-3.22-11.57-0.21c-11.53,0.42-22.5,0.23-34.04,0.2c-3.29-0.99-6-1.99-9.35-0.07c-33.08,0.23-65.56,0.13-98.63,0.11
	c-3.22,0.06-5.63-2.83-8.93-0.34c-4.39,0.56-8.3,0.33-12.69,0.3c-2.7-0.35-4.65-2.9-7.56-0.5c-1.64,0.59-2.89,0.54-4.59,0.3
	c-2.8-1.69-5.18-2.38-8.1-0.16c-2.35,0.54-4.29,0.43-6.69,0.26c-3.1-1.43-5.72-3.01-9.14-0.63c-1.03,0.35-1.66,0.4-2.75,0.25
	c-3.28-2.39-5.8-0.67-8.92,0.44c-12.64,0.18-24.74,0.14-37.41,0.05c-4.48-1.39-8.35-3.47-13.02-0.5c-2.31,0.67-4.17,0.53-6.58,0.46
	c-7.18-1.02-14.04-0.58-20.84-3.23c-4.11-6.42-9-8.27-14.96-5.41c-3.1,0.58-4.94-0.66-6.73-2.87c-1.9-4.49-6.16-4.91-10.24-6.34
	c-0.72-0.27-0.99-0.4-1.61-0.82c-2.04-3.53-4.81-5.27-9.15-5.54c-0.73-0.21-1.01-0.33-1.66-0.7c-1.87-2.71-3.5-5.04-6.91-6.36
	c-2.29-4.9-6.64-8.18-8.83-13.17c-1-1.33-1.78-2.26-2.76-3.61c-0.83-1.47-1.24-2.63-2.1-4.11c-7.48-10.56-11.35-21.95-14.28-33.64
	c-0.57-2.28-2.29-2.96-4.09-4.59c-1.15-2.91-0.78-5.56-1.54-8.65c-0.01-146.48,0-292.36-0.37-438.79c-0.35-1.9-0.35-3.26-0.35-5.13
	c7.16-4.95,7.53-12.86,10.25-19.25c6.59-15.48,13.65-30.45,26.72-42.3c1.64-1.49,2.94-3.25,4.82-5.17c1.93-1.53,4.09-1.75,6.02-3.31
	c5.46-2.62,10.82-4.42,14.82-8.42c1.36-1.36,3.35-2.46,5.42-2.43c7.28,0.1,11.77-4.66,17.54-8.34c2.08-0.76,3.67-0.66,5.85-0.02
	c4.7,2.35,9.19,1.23,13.43,1.22c158.35-0.22,316.7,0.03,475.06-0.01c6.18,0,12.37-0.2,19.2,0.2c1.92,0.02,3.19,0.05,5.07,0.07
	c2.96,0.04,5.29,0.21,7.76,1.76c1.89,2.61,3.02,5.21,6.87,4.64c1.88-0.28,3.43,0.88,4.8,2.02c5.93,4.95,13.47,7.51,20.38,11.88
	c16.93,13.19,26.87,29.86,33.85,48.61c1.77,4.76,2.61,10.04,6.17,14.7c3.47,2.69,1.91,6.41,3.68,9.64c0.31,0.95,0.31,1.52,0.31,2.51
	c-1.22,2.18-0.69,4.15-0.69,6.02c-0.03,141.52-0.02,283.05-0.02,424.57C667.67,611.27,667.69,612.12,668.07,613.53z"/>
<path class="st1" d="M70.91,714.54C40.65,715,10.48,715-20,715c0-26.4,0-52.79,0-79.79c3.9-2.11,3.97,1,4.74,2.95
	c2.83,7.16,5.64,14.32,9.71,20.99c1.13,1.86,2.29,3.68,4.49,5.3c1.04,0.42,1.63,0.66,2.61,1.18c0.63,0.44,0.86,0.65,1.34,1.22
	c0.99,1.89,1.81,3.38,2.81,5.23c0.61,1.58,0.99,2.83,2.63,3.8c1.49,1.18,2.02,2.46,2.78,4.1c0.91,2.5,2.19,4.23,4.77,5.46
	c1.47,0.65,2.53,1.14,3.86,2.02c1.2,1.82,2.59,2.7,4.85,3.16c2.84,0.87,5.1,1.87,6.92,4.09c0.07,0.44,0.2,0.44,0.19,0.5
	c0.55-0.1,1.02,0.01,1.59,0.78c0.66,1.22,1.25,1.98,2.75,2.41c0.97,0.29,1.51,0.51,2.44,1.01c7.97,7.63,19.44,6.95,28.27,11.78
	C68.3,712.02,70.14,712.39,70.91,714.54z"/>
<path class="st2" d="M578.27,77.39C608.27,77,637.99,77,668,77c0,27.67,0,55.35,0,83.62c-1.99,1.28-2.87-0.26-4.39-1.49
	c-0.55-0.91-0.72-1.49-0.79-2.54c-0.78-5.65-2.38-10.57-6.21-15.15c-2.52-2.96-4.55-5.68-5.31-9.47c-0.3-2.33-0.72-4.14-3.19-5.34
	c-3.07-1.83-4.6-4.28-6.1-7.25c-0.52-1.38-0.98-2.33-2.29-3.2c-1.26-0.97-1.71-1.94-2.09-3.38c-0.37-1.62-0.58-2.89-2.16-3.93
	c-0.53-0.42-0.73-0.59-1.22-1.05c-1.13-1.31-2.04-2.25-3.92-2.6c-0.99-0.26-1.53-0.47-2.44-0.95c-3.1-3.29-5.6-6.64-10.9-7.1
	c-1.04-0.44-1.58-0.79-2.41-1.55c-9.21-7.64-20.18-10.98-31.14-14.31C581.21,80.61,578.17,81.16,578.27,77.39z"/>
<path class="st1" d="M-19.57,158.94C-20,131.54-20,104.41-20,77c28.01,0,56.01,0,84.67,0c2.34,4.62-3.21,3.8-5.02,6.34
	c-0.63,0.44-0.89,0.61-1.56,0.96c-3.11,1.25-6.25,1.49-8.51,4.19c-0.85,0.56-1.39,0.75-2.42,0.86c-1.57-0.1-2.71-0.23-4.26,0.23
	c-8.81,3.41-16.49,7.68-23.29,14c-0.56,0.51-0.8,0.69-1.45,1.09c-3.58,1.41-5.99,3.37-7.7,6.62c-0.32,0.63-0.46,0.87-0.86,1.46
	c-2.37,1.85-4.06,3.65-4.89,6.52c-0.32,0.64-0.46,0.89-0.9,1.47c-4.27,2.6-6.09,6.24-7.78,10.51c-5.78,7.33-8.21,15.54-11.3,23.48
	C-16.03,156.66-15.93,159.14-19.57,158.94z"/>
<path class="st1" d="M667.59,634.34C668,661.31,668,688.02,668,715c-28.47,0-56.93,0-86.04,0c-1.48-5.54,3.97-5.12,6.88-5.87
	c8.88-2.31,17.01-5.97,24.45-10.75c4.58-2.94,10.38-4.5,13.75-9.7c0.76-0.83,1.3-1.19,2.36-1.63c4.07-0.91,6.38-3.11,8.19-6.46
	c0.35-0.66,0.5-0.91,0.94-1.52c2.93-2.44,5.08-4.85,6.16-8.46c0.44-0.93,0.78-1.41,1.55-2.11c1.87-1.08,3.42-1.86,3.81-4.1
	c0.22-0.65,0.32-0.91,0.64-1.52c1.9-1.91,3.13-3.72,3.94-6.25c0.34-0.65,0.5-0.91,0.94-1.52c4.97-4.96,5.25-11.28,7.71-16.75
	C664.11,636.5,664.04,634.06,667.59,634.34z"/>
<path class="st3" d="M82.87,77.56C245.14,77,407.08,77,569.66,77c1.2,0.71,1.45,1.51,1.18,2.98c-1.99,2.43-4.32,2.36-6.6,2.12
	c-7.77-0.8-15.56-0.46-23.34-0.46c-146.81-0.02-293.62,0-440.43-0.06c-5.47,0-10.97,0.87-16.96-0.6
	C82.52,79.8,82.39,78.98,82.87,77.56z"/>
<path class="st4" d="M103.36,711.93c13.85,0.32,27.13,0.36,41.04,0.35c2.51-1.19,4.51-1.23,7.16-0.45c1.12,0.27,1.68,0.31,2.66,0.31
	c2.8-1.19,5.26-1.13,8.32-0.22c2.86,0.3,5.17,0.32,8.06,0.32c2.46-1.14,4.46-1.2,7.1-0.36c1.97,0.32,3.39,0.38,5.34,0.4
	c1.96-0.93,3.49-1.18,5.68-0.44c5.11,0.31,9.67,0.38,14.86,0.4c2.07-0.9,3.6-1.15,5.78-0.33c34.45,0.29,68.36,0.33,102.9,0.29
	c2.1-0.87,3.64-1.11,5.81-0.29c12.43,0.3,24.33,0.34,36.86,0.33c2.99-1.33,5.45-1.24,8.51-0.3c24.38,0.3,48.21,0.31,72.67,0.29
	c5.29-1.76,10.04-1.14,15.37-0.28c18.9,0.32,37.23,0.35,56.19,0.33c1.65-0.64,2.73-0.91,4.43-0.35c16.12,0.32,31.72,0.4,47.96,0.56
	c1.12,0.96,0.62,1.52-0.43,2.25C402.4,715,245.51,715,87.97,715c-1.27-0.5-2.04-0.88-2.19-2.06c2.02-0.46,3.92-0.54,6.39-0.67
	C96,710.65,99.39,711.05,103.36,711.93z"/>
<path class="st7" d="M2.98,120.69c0.33-0.34,0.7-0.64,0.78-0.86c1.29-2.46,2.7-4.58,4.73-6.83c0.29-0.33,0.62-0.69,0.68-0.92
	c1.9-3.28,4.95-5.28,7.99-7.81c0.44-0.13,0.94-0.21,1.15-0.34c0.91-0.83,1.77-1.11,3.58-0.57c0.29,3.37-1.93,5.16-4,7.15
	c-12.66,12.13-20,26.82-26.18,42.6c-2.19,5.6-1.42,14.59-11.21,17.01c-0.51-0.94-0.51-1.9-0.51-3.34c3.44-5.5,4.77-11.35,6.54-16.86
	c2.09-6.51,5.06-12.43,8.98-18.57C-2.55,127.28-0.83,123.63,2.98,120.69z"/>
<path class="st8" d="M627.83,688.16c-1.32,7.13-8.8,7.86-13.55,11.29c-8.92,6.43-19.85,9.5-30.49,12.81
	c-1.11,0.34-2.19,0.57-2.52,2.26c-1.42,0.49-2.89,0.49-4.91,0.49c-1.47-1.59-0.79-2.94,0.59-4.53c8.75-1.53,16.42-4.87,24.78-7.53
	c6.98-6.27,15.54-9.47,23.49-14.29c0.48-0.09,0.32-0.01,0.41-0.02C626.04,687.89,626.61,687.62,627.83,688.16z"/>
<path class="st9" d="M85.43,712.31c0.83,0.85,1.19,1.46,1.73,2.38C82.25,715,77.17,715,71.45,715c-5.59-2.9-10.76-5.29-16.51-6.63
	c-6.23-1.46-11.99-3.98-17.14-8.18c2.14-2.04,4.06-1.1,6.28,0.62c1.39,2.25,3.38,2.91,5.68,3.76c6.1-1.85,10.29,1.42,15.12,3.98
	C71.44,711.93,78.44,710.67,85.43,712.31z"/>
<path class="st10" d="M570.67,79.8c-0.34-0.9-0.32-1.44-0.34-2.39c2.33-0.41,4.69-0.41,7.64-0.41c0.42,1.58,1.33,2.24,2.89,2.52
	c12.78,2.35,24.21,7.53,34.93,14.71c-1.17,1.85-2.87,1.99-4.28,1.21c-6-3.33-12.21-6.27-18.87-9.41c-1.76-1.58-3.54-1.85-5.78-1.91
	c-2.05,0.01-3.48-0.99-5.68-0.78C577.23,82.86,574.07,81.66,570.67,79.8z"/>
<path class="st12" d="M-0.37,666.08c-5.99-2.07-7-7.67-9.79-12.02c-3.89-6.06-4.74-13.37-9.32-19.42c-0.52-1.79-0.52-3.57-0.52-5.87
	c2.09-1.13,3.05,0.43,4.63,1.79c4.76,10.55,7.23,21.55,15.25,30.75C0.69,663.06,0.69,664.38-0.37,666.08z"/>
<path class="st14" d="M82.56,77c0.6,0.56,0.56,1.12,0.58,2.1c-1.12,1.72-2.76,1.86-4.89,2.02c-1.39,0.08-2.31,0.1-3.66,0.38
	c-1.31,0.32-2.2,0.44-3.53,0.2c-1.9,0-3.39,0.14-5.3,0.61c-2.44,1.4-4.1,3.74-7.12,1.48c0-4.43,5.37-2.97,6.65-6.34
	C70.85,77,76.39,77,82.56,77z"/>
<path class="st15" d="M576.76,710.05c0.64,1.59,0.3,2.96-0.87,4.52c-5.16,0.42-10.24,0.42-15.95,0.42c-0.27-0.6,0.1-1.2,0.61-2.11
	C565.86,711.7,571.02,710.82,576.76,710.05z"/>
<path class="st20" d="M92.34,422.3c0.93,0.7,1.32,1.04,2.05,1.57c1.69-1.13,1.78,0.44,2.51,1.36c0.26,0.72,0.35,1.01,0.55,1.74
	c2.91,9.94,11.56,13.58,20.41,17.64c2.94,1.07,5.41,2.06,8.7,1.91c5.27-0.02,10-0.02,15.27-0.03c4.98,0.22,8.98-1.03,13.03-3.53
	c4.47-2.48,8.21-4.99,9.98-9.83c2.78-3.36,4.01-6.64,2.63-10.84c-2.83-5.69-5.23-11.18-12.22-13.68c-1.34-0.83-2.12-1.7-3.74-2.04
	c-1.31-0.24-2.17-0.44-3.43-0.9c-2.36-1.61-4.5-2.61-7.49-2.85c-1.8-0.14-3.1-0.32-4.84-0.87c-9.29-4.34-18.72-6.87-28.75-9.23
	c-2.82-0.33-5.05-0.92-7.67-1.89c-1.54-0.7-2.41-1.57-4.04-2.04c-1.35-0.26-2.24-0.48-3.56-0.94c-1.53-0.8-2.54-1.57-4.33-1.99
	c-14.15-6.55-25.73-14.85-30.75-29.01c-9.14-25.78,1.61-57.83,29.12-69.79c34.07-14.81,67.56-13.82,99.1,5.82
	c13.55,8.44,21.87,20.94,24.38,36.32c1.2,7.36-0.44,9.61-8.18,9.74c-9.84,0.17-19.69,0.05-29.54,0.03c-4.2-0.01-8.05-1.03-9.55-4.92
	c-5.63-14.61-18.59-17.81-32.97-17.73c-6.85,0.04-14.25-0.13-20.28,4.47c-8.83,6.74-9.14,16.31-0.87,23.61
	c6.5,5.73,14.4,8.88,23.12,11.71c1.87,0.77,3.05,1.83,5.16,1.88c3.62,0.27,6.51,1.37,9.86,2.58c1.69,0.97,2.88,1.91,5.03,1.85
	c4.63-0.09,8.37,1.25,12.5,3.01c1.61,0.75,2.53,1.72,4.39,1.95c28.75,5.03,44.66,21.53,47.35,47.15c-1.18,3.91-1.14,7.38-0.35,11.32
	c0.44,1.68,0.5,2.92,0.2,4.61c-0.51,1.56-1.42,2.4-2.1,3.85c-0.3,0.95-0.47,1.49-0.76,2.46c-0.38,1.28-0.59,2.14-0.65,3.51
	c-1.57,12.8-10.9,20.3-20.36,27.27c-14.85,10.94-32.63,14.56-51.13,15.59c-17.98,1-35.55-1.25-52.54-6.78
	c-18.04-5.87-29.3-18.12-36.43-34.65c-0.83-4.51-2.47-8.3-3.63-12.78c-0.29-1.27-0.34-2.02-0.23-3.36c0.68-2.99,2.55-4.33,4.96-4.38
	C65.45,420.91,78.66,419.65,92.34,422.3z"/>
<path class="st21" d="M148.29,404.39c1.29,0.19,2.11,0.39,3.29,0.81c1.3,0.72,2.22,1.27,3.56,1.82c7.29,2.46,11.29,7.21,13.17,14.11
	c0.5,4.35,0.28,8.13-1.97,12.14c-1.2,5.01-4.55,7.79-9.05,10.14c-4.47,1.53-8.45,3.09-13.16,4.08c-5.93,1.52-11.46,0.89-17.59,0.44
	c-3.07-0.91-5.36-2.18-8.48-2.23c-10.62-2.47-17.81-8.29-22.53-17.37c0.3-0.6,0.47-0.8,0.45-1.06c-0.03-0.28-0.09-0.42-0.54-0.47
	c-0.55-0.73-0.74-1.42-0.81-2.42c1.7-3.03,3.84-3.36,4.76-0.29c2.6,8.63,10.32,12.28,17.53,16.59c1.91,1.14,3.81,1.26,5.87,1.26
	c6.88,0,13.75,0.01,20.63,0c8.36,0,17.1-5.05,18.19-10.5c2.22-11.07-1.66-18.39-12.18-21.5c-7.5-2.22-15.32-4.22-22.41-6.88
	c-8.61-3.22-17.78-4.67-26.29-8.46c-8.03-3.59-16.34-6.58-23.94-11.08c-11.02-6.53-20.05-15.28-23.83-26.48
	c-2.38-7.07-8.34-14.76-5.15-22.22c4.47-10.47,5.69-21.81,13.36-31.64c8.69-11.14,19.91-18.36,32.48-23.69
	c7.36-3.12,15.57-6.16,24.7-4.89c7.17,1,14.66,0.55,21.97,0.12c11.01-0.64,20.39,3.29,30.34,6.93c14.7,5.38,25.55,14.42,33.83,26.18
	c4.68,6.64,8.35,14.25,9.28,22.34c0.75,6.5-6.51,13.05-14.4,13.5c-2.38-2.13-4.96-1.9-7.48-1.92c-6.18-0.04-12.35,0.06-18.53-0.05
	c-2.92-0.05-6.03,0.28-8.62-2.6c-3.34-1.53-5.42-3.05-7.01-6.05c-4.75-8.94-12.35-14.28-23.78-13.64c-3.65,0.21-7.33,0.03-11,0.03
	c-6.93,0.01-14.79,4.49-16.25,9.28c-2.22,7.29,0.73,12.11,8.6,16.79c9.41,5.6,20.44,6.44,30.31,10.16
	c5.92,2.23,12.83,1.7,17.89,5.74c1.98,1.58,4.48,0.82,6.45,1.59c15.47,6.12,31.72,11.46,40.71,26.07
	c3.48,5.66,7.01,11.28,7.85,18.36c0.54,4.61,2.75,9.24,2.25,14.12c-2.34,23-13.08,41-35.18,53.02c-9.36,5.08-20.01,6.77-29.32,11.65
	c-1.25,0.66-3.14,0.36-4.73,0.37c-8.25,0.03-16.53-0.42-24.75,0.11c-15.34,0.98-28.99-3.92-42.9-8.87
	c-15.62-5.56-25.11-16.23-32.83-29.33c-4.3-7.3-7.97-14.44-8.43-22.86c-0.12-2.11,0.45-2.69,2.9-2.79c1.74,0.7,1.81,1.96,2.35,3.49
	c0.4,0.96,0.63,1.5,0.8,2.49c0.15,4.26,1.74,7.71,3.46,11.56c7.54,14.92,16.76,28.19,33.94,33.7c19.12,6.14,38.92,8.86,59.34,7.08
	c10.82-0.94,21.58-3.1,31.11-7.07c15.71-6.55,28.33-17.08,33.87-33.72c0.1-1.31,0.66-1.99,1.1-3.13c0.24-0.83,0.34-1.28,0.5-2.07
	c0-1.26,0.53-2.03,0.89-3.3c0.33-1.71,0.57-2.98,0.8-4.75c0.44-3.98,0.26-7.48,0.07-11.45c-1.71-24.17-17.76-41.28-45.28-47.01
	c-1.75,0.23-2.48-0.76-3.84-1.22c-4.32-1.37-8.27-2.59-12.74-3.83c-2.03-0.08-3.3-0.88-5.1-1.44c-3.69-1.14-6.99-2.09-10.81-3.05
	c-1.1-0.24-1.69-0.47-2.74-0.76c-9.64-3.22-19.19-5.66-26.58-12.17c-5.79-5.09-8.64-10.85-5.67-18.26
	c2.89-7.2,8.22-11.42,16.59-12.38c11.89-1.36,23.78-2.41,34.6,3.77c5.35,3.05,9.62,7.26,10.97,13.28c0.8,3.58,3.13,4.79,6.88,4.76
	c10.99-0.09,21.99-0.09,32.98-0.01c4.59,0.03,5.97-1.6,5.07-5.91c-5.76-27.6-24.39-43.1-53.17-49.34
	c-24.27-5.26-47.62-3.7-70.03,7.16c-29.51,14.3-38.49,54.7-20.54,77.88c6.06,7.82,14.68,12.59,23.95,17.33
	c1.27,0.95,2.17,1.6,3.61,2.12c1.26,0.16,2.09,0.33,3.27,0.72c1.29,0.76,2.2,1.33,3.56,1.87c2.59,0.6,4.77,1.18,7.37,1.97
	c9.88,3.69,19.65,6.28,29.76,9.42c1.77,0.2,3,0.38,4.66,0.78C143.04,402.87,145.62,403.24,148.29,404.39z"/>
<path class="st22" d="M410.02,477.63c-0.37-0.5-0.39-0.93-0.54-1.09c-1.99-2.11-1.07-4.12-0.37-6.16
	c15.52-45.14,31.56-90.13,46.89-135.33c3.7-10.91,8.06-21.64,10.1-33.07c1.05-5.91,3.57-11.76,6.98-17.64
	c0.92-1.4,1.91-1.95,3.47-2.66c1.35-0.32,2.14-0.36,3.53-0.23c15.07,0.87,29.56,0.5,44.62,0.14c1.35-0.28,2.13-0.32,3.49-0.18
	c4.78,1.58,5.8,5.33,7.02,8.62c16.02,43.21,32.54,86.28,46.57,130.08c5.54,17.3,12.13,34.3,17.35,52.22
	c0.13,1.21,0.07,1.91-0.27,3.09c-0.41,0.78-0.64,1.07-1.34,1.64c-2.98,1.19-5.75,0.89-8.81,1.95c-8.61,0.64-16.66,0.49-25.3,0.15
	c-3.53-1.26-6.97-0.57-10.2-2.59c-0.79-0.68-1.18-0.96-1.92-1.32c-1.03-0.7-1.45-1.45-1.83-2.69c-0.28-1.54-0.87-2.49-1.82-3.76
	c-0.73-1.44-0.86-2.58-1.05-4.14c-0.15-1.28-0.27-2.14-0.69-3.39c-0.33-0.99-0.49-1.57-0.75-2.59c-2.08-6.34-3.41-12.42-6.18-18.58
	c-0.83-1.62-1.46-2.79-2.51-4.33c-1.51-2.08-3.33-2.14-5.2-2.14c-19.47-0.03-38.95-0.07-58.43,0.02c-1.41,0.01-2.7,0.41-4.56,0.89
	c-3.83-5.57-2.48-8.03,4.55-8.29c10.54-0.39,21.09-0.1,31.64-0.13c7.34-0.02,14.67-0.01,22.01,0c13.48,0.01,18.84,4.48,22.77,16.39
	c2.6,7.88,5.42,15.72,7.92,23.64c0.79,2.5,2.46,4.51,5.27,4.24c7.58-0.73,15.09,0.97,22.64,0.2c0.94-0.1,1.73-0.51,2.68-1.46
	c-1.58-6.81-4.96-13.36-6.58-20.41c-4.21-18.3-12.39-35.46-18.29-53.26c-6.85-20.65-15.16-40.84-22.04-61.47
	c-3.92-11.76-9.55-22.98-12.52-35.02c-1.19-4.83-4.53-7.09-9.9-7.07c-10.55,0.04-21.09,0.01-31.64,0.01c-5.12,0-7.75,2.28-9.29,6.81
	c-7.6,22.42-13.14,45.41-21.48,67.59c-7.91,21.02-14.21,42.52-22.09,63.53c-4.8,12.79-8.44,25.88-13.42,38.25
	c0.73,2.14,2.35,2.48,3.96,2.54c6.41,0.27,12.84,0.29,19.25-0.01c3.27-0.15,5.54-1.4,6.27-4.76c1.91-8.73,5.42-17.04,7.91-25.62
	c0.97-3.35,2.58-6.48,7.62-6.72c0.85,0.3,1.16,0.49,1.84,1.05c0.68,0.99,0.83,1.63,0.72,2.79c-2.08,3.42-2.59,6.79-3.31,10.57
	c-0.16,1.08-0.3,1.7-0.62,2.76c-1.78,3.64-2.75,7-3.32,10.98c-0.73,5.86-1.22,11.29-6.49,15.55c-1.74,1.34-3.22,1.97-4.81,2.05
	c-12.22,0.63-24.45,0.75-36.67-0.06C411.93,479.12,411.13,478.63,410.02,477.63z"/>
<path class="st23" d="M76.36,80.41c2.19-0.32,3.97-0.57,6.29-0.85c4.27,1.69,8.03-0.05,11.76-0.04
	c153.91,0.13,307.82,0.11,461.73,0.14c4.51,0,9.02,0.38,13.85,0.19c3.89-0.36,7.16,0.77,10.85,2.23c0.94,0.68,1.14,1.21,0.77,2.2
	C413.6,84.64,245.89,84.65,78.17,84.6c-2.49,0-5.66,1.29-7.4-2.48c0.62-0.75,1.38-0.95,2.49-0.97
	C74.39,81.03,75.17,80.76,76.36,80.41z"/>
<path class="st24" d="M271.35,475.99c-1.09,0.36-1.66,0.65-2.33,1.24c-3.99,3.41-8.68,1.83-13.03,2.17c-2.9,0.22-5.83-0.14-9.3,0.56
	c-2.58,0.63-4.59,0.64-7.21,0.37c-3.62-1.11-6.8-0.84-9.93-1.03c-4.1-0.24-6.49-1.75-4.8-6.48c0.76-1.99,2-3.13,3.12-4.87
	c1.61-1.9,3.12-3.34,3.92-5.7c0.31-0.64,0.46-0.89,0.86-1.47c1.78-1.72,2.86-3.31,3.27-5.72c9.3-17.32,21.38-32.6,31.56-48.94
	c4.35-6.98,8.68-13.99,13.48-20.71c2.33-3.25,2.5-6.14,0.19-9.39c-14.48-20.4-26.23-42.3-40.3-62.93
	c-5.49-8.05-9.08-17.1-14.45-25.25c-1.29-1.95-2.29-4.4,1.42-6.17c1.93-0.7,3.38-0.62,5.37-0.1c4.02,2.4,8.01,1.7,11.79,1.59
	c7.9-0.23,15.86,1.02,24.2-1.06c1.61-0.72,2.76-0.87,4.54-0.71c3.02,0.9,4.54,2.43,5.07,5.36c0.08,1.6-0.13,2.63-0.85,4.04
	c-0.62,0.72-1.11,1.21-1.39,1.11c-8.96-3.3-18.46,1.55-27.48-1.62c-3.05-1.07-6.32-0.4-9.54,0.38c-1.14,2.9,0.98,4.95,2.3,6.97
	c16.22,24.64,30.68,50.23,47.19,74.72c3.7,5.5,3.3,11.33-0.16,16.92c-11.75,18.95-24.52,37.33-36.89,55.94
	c-5.12,7.7-10.85,15.16-14.01,25.1c9.34,0.81,17.86,1.33,26.36-0.32c2.86-0.55,4.21-3.18,5.59-5.37
	c8.31-13.2,15.77-26.83,23.58-40.28c2.06-3.56,4.55-6.86,6.48-10.5c1.28-2.41,3.47-3.96,7.18-3.18c3.2,3.63,1.42,6.92-0.69,9.52
	c-9.26,11.4-13.33,25.36-21.76,37.15C280.31,463.47,277.29,470.4,271.35,475.99z"/>
<path class="st25" d="M350.55,393.39c0.03,0.45,0.14,1.01,0.36,1.2c5.07,4.29,6.43,10.38,10.39,15.5c0.44,0.62,0.6,0.87,0.96,1.51
	c1.63,3.52,3.28,6.54,6.06,9.4c0.55,0.48,0.77,0.67,1.27,1.2c1.03,1.57,2.16,2.54,3.27,4.07c0.67,1.17,1.1,1.96,1.95,3.07
	c5.48,9.5,11.51,18.14,17.38,26.88c3.33,4.96,5.91,10.35,9.08,15.43c1.44,2.31,1.67,4.83-1.52,7.05
	c-15.6,0.68-30.68,1.93-46.14-0.91c-0.45-0.44-0.59-0.3-0.49-0.33c-2.56-1.11-3.95-3.16-5.41-5.42
	c-10.83-16.74-20-34.38-31.65-50.69c-1.75-2.45-3.52-5.06-2.18-8.7c4.29-2.12,6.73-0.3,8.76,2.71
	c7.65,11.32,14.65,22.98,21.66,34.64c3.23,5.37,6.9,10.51,9.52,16.19c1.17,2.54,3.07,4.3,6.13,4.45c9.32,0.47,18.63,0.36,27.42,0.11
	c1.66-2.34,0.47-3.59-0.36-4.76c-10.71-15.05-19.86-30.99-30.08-46.33c-8.35-12.54-15.74-25.75-23.68-38.61
	c-1.72-2.78-0.63-5.27,1.19-7.69c5.62-7.48,11.35-14.96,15.68-23.13c11.21-21.18,26.2-40.2,39.44-60.75
	c0.63-1.61,1.19-2.74,1.96-4.3c0.69-1.27,1.26-2.06,2.35-3.07c1.37-0.72,2.38-0.81,3.9-0.42c1.12,0.92,1.73,1.68,2.52,2.88
	c0.66,2.32-0.02,4.04-0.91,6.16c-1.02,1.6-2.07,2.66-2.89,4.36c-1.61,2.25-3.18,4.02-4.24,6.6c-13.62,18.61-26.42,37.19-37.56,56.69
	c-2.69,4.71-5.53,9.29-9.06,13.48c-3.41,4.05-3.74,7.92-0.3,12.16C347.52,386.73,349.75,389.5,350.55,393.39z"/>
<path class="st26" d="M598.66,473.82c-7.13-18.14-12.73-36.27-18.85-54.26c-12.54-36.82-26.15-73.33-39.31-109.97
	c-2.46-6.85-4.82-13.72-7.3-20.56c-0.79-2.18-1.22-4.6-3.86-6.35c-0.42-1.67,0.41-2.01,1.99-1.81c2.03,1.85,2.52,4.4,5.81,4.44
	c2.1,0.02,2.84,1.92,2.83,3.78c-0.04,8.9,5.27,16.55,7.87,24.71c3.12,9.81,6.5,19.83,10.58,29.41c4.17,9.78,5.95,20.43,11.08,29.58
	c4.61,8.24,5.04,17.36,9.51,25.66c3.67,6.83,2.84,16.03,6.78,23.09c3.09,5.52,2.23,12.12,7.04,17.07c2.44,2.52,1.88,6.89,2.47,10.16
	c1.05,5.85,6.55,10.27,5.4,16.55c-0.13,0.71,0.37,1.77,0.96,2.29c5.57,4.81,2.51,8.56-2.05,12.42c-1.08,0.43-1.65,0.3-2.35-0.55
	c-0.28-1.01-0.18-1.59,0.53-2.35c0.43-0.2,0.52-0.3,0.58-0.35C598.75,475.93,599.03,475.12,598.66,473.82z"/>
<path class="st27" d="M473.66,283.46c-12.9,46.13-29.66,90.99-45,136.26c-6.3,18.59-12.75,37.13-19.23,56.17
	c-0.34,0.48-0.57,0.47-1.15,0.47c-1.6-1.15-2.27-2.52-1.92-4.59c3.56-9.89,5.19-19.74,8.65-29.3c4.11-11.36,7.93-22.9,12.02-34.34
	c2.08-5.83,4.13-11.77,5.87-17.6c2.49-8.34,5.54-16.54,8.31-24.77c2.02-5.98,3.1-12.38,6.79-17.87c2.43-3.62,2.86-8.38,3.16-11.93
	c0.51-6.27,5.46-10.68,5.7-17.07c0.12-3.38,2.8-7.91,4.62-11.78c0.96-2.04,1.45-3.88,1.53-5.97c0.06-1.68-0.49-3.86,1.24-4.74
	c3.85-1.97,4.65-4.92,4.26-8.56c-0.23-2.13,1.58-2.87,3.6-3.97C472.8,283.49,473.05,283.35,473.66,283.46z"/>
<path class="st28" d="M227.9,281.82c-2.04,2.22-1.35,3.94-0.06,6.01c15.42,24.78,30.74,49.61,46.08,74.43
	c1.02,1.66,1.59,3.74,3.02,4.98c10.38,8.95,7.31,17.23,0.46,27.01c-13.95,19.91-26.66,40.56-40.09,61.32
	c-1.7,1.74-2.7,3.36-3.57,5.52c-0.13,0.39-0.13,0.07-0.1,0.22c-0.53,0.33-1.1,0.45-2.45,0.14c-0.49-2.04-0.71-3.96,0.14-5.3
	c15.34-24.11,30.58-48.28,46.43-72.1c3.15-4.74-0.04-7.4-1.86-10.04c-14.96-21.65-28.5-44.03-41.48-66.74
	c-4.49-7.85-8.97-15.81-15.06-22.82c1.86-2.68,4.69-2.77,7.8-3.36C227.67,281.07,228.09,281.56,227.9,281.82z"/>
<path class="st29" d="M398.74,282.84c-1.53,0.01-2.48,0-3.88,0.16c-12.05,2.42-23.8,0.59-36.01,1.33c-0.9,0.13-1.25,0.22-2.08,0.48
	c-1.1,0.43-1.7,0.71-2.64,1.33c-5.62,7.01-9.19,14.63-13.46,21.86c-3.19,5.39-7.92,9.93-10.22,16.3
	c-5.68,7.41-7.65,16.19-13.96,23.28c-0.68,0.49-0.99,0.65-1.8,0.96c-1.58,0.3-2.63,0.22-4.11-0.34c-1.2-0.95-1.57-1.83-1.95-3.2
	c-0.71-3.98-2.97-6.69-5.59-9.7c-1.5-2.3-2.15-4.5-3.41-6.9c-0.64-1.37-1.15-2.32-2.21-3.45c-1.31-2.23-2.3-4.15-3.49-6.43
	c-0.39-0.85-0.62-1.33-1.07-2.15c-0.98-1.48-1.71-2.64-2.61-4.19c-0.32-0.63-0.44-0.88-0.72-1.54c-0.88-2.58-1.96-4.62-3.29-7.01
	c-0.72-1.36-1.08-2.42-2.11-3.61c-0.43-0.55-0.58-0.77-0.93-1.36c-0.39-0.85-0.59-1.35-0.92-2.2c-0.26-0.6-0.36-0.83-0.62-1.43
	c-0.5-1.05-0.82-1.75-1.62-2.64c-0.43-0.52-0.6-0.73-0.95-1.31c-0.52-1.38-0.59-2.47-1.23-3.79c-0.21-2.18-1.43-3.3-3.14-4.59
	c-0.43-1.66,0.42-2.02,2.04-1.82c7.63,1.97,10.13,8.28,12.26,13.18c5.52,12.71,12.6,24.63,19.29,36.76
	c0.84,1.51,1.58,2.96,2.18,4.58c0.93,2.52,3.76,2.64,4.63,0.7c4.95-10.98,12.94-20.33,18.73-30.87c4.47-8.13,7.97-16.97,15.16-23.67
	c1.83-1.7,3.66-3,6.51-2.98c13.29,0.1,26.59,0.04,39.88,0.04c1.84,0,3.82-0.19,4.23,2.7C399.56,282.15,399.44,282.48,398.74,282.84z
	"/>
<path class="st30" d="M314.22,412.49c2.02,8.86,8.89,15.37,13.38,23.12c8.04,13.87,16.94,27.32,25.55,41.38
	c-4.28,0.78-6.75-0.86-9.03-4.6c-8.93-14.69-18.46-29.07-27.69-43.61c-0.66-1.04-0.48-2.51-1.01-3.65
	c-0.83-1.81-2.19-3.38-4.51-3.44c-2.04-0.05-3.43,1.31-4.22,2.86c-5.59,10.89-12.14,21.32-17.45,32.37
	c-2.99,6.24-7.52,11.86-11.62,17.6c-1.14,1.6-3.45,1.97-6.21,1.63c8.17-14.69,18.54-28.48,25.14-44.19
	c2.9-6.92,9.5-11.96,11.92-19.71c0.19-0.77,0.3-1.07,0.84-1.61c1.44-0.55,2.46-0.55,3.96-0.11
	C314.33,411.15,314.66,411.69,314.22,412.49z"/>
<path class="st31" d="M550.29,471.27c0.31,1.29,0.48,2.15,0.65,3.46c-2.85,1.77-3.69,1.55-5.8-1.65
	c-3.72-5.62-2.38-12.42-6.91-17.85c-2.38-2.86-1.73-7.93-3.5-11.89c-1.15-2.56-2.22-3.96-5.2-3.96c-19,0.02-37.99,0.01-56.77,0.01
	c-4.07,8.29-6.03,16.47-7.63,24.99c-0.82,4.39-0.71,12.16-9.66,13.28c-0.78-0.2-1.02-0.41-1.05-1.02c2.59-4.74,3.54-9.48,5-14.6
	c1.52-3.69,2.28-7.1,3.67-10.76c0.21-0.88,0.35-1.33,0.55-2.13c1.17-3.64,2.13-6.96,2.95-10.78c0.39-0.89,0.52-1.37,0.75-2.21
	c2.22-2.37,4.95-2.52,7.74-2.52c18.55,0,37.1,0,55.66,0c2.31,0,4.59,0.1,7.08,1.81c0.91,1.36,1.34,2.27,1.84,3.55
	c2.27,6.58,3.6,13.03,6.47,19.51c0.26,0.9,0.38,1.37,0.6,2.2c0.18,1.13,0.4,1.86,0.98,2.88c0.49,1.55,0.84,2.73,1.38,4.34
	C549.38,469.25,549.72,470.06,550.29,471.27z"/>
<path class="st32" d="M351.08,393.6c-3.5-3.95-6.47-8.17-9.5-12.35c-1.81-2.49-1.08-4.69,0.46-7.06
	c12.07-18.61,24-37.31,36.13-55.89c3.76-5.76,8-11.26,12.42-17.12c1.6,0.08,2.18,0.9,2.34,2.45c-0.93,6.21-5.15,10.29-8.24,14.89
	c-10.36,15.41-21.07,30.63-31.06,46.24c-1.89,2.95-3.26,6.36-5.2,9.44c-1.87,2.97-0.78,5.78,0.47,8.97
	C350.14,386.35,355.25,389.01,351.08,393.6z"/>
<path class="st30" d="M406.09,471.26c0.93,1.46,1.38,2.84,1.84,4.65c-1.18,0.66-2.37,0.88-3.85,1.42c-0.6,0.72-1.01,0.95-2.19,0.76
	c0.27-2.84-1.45-4.57-2.74-6.58c-8.67-13.54-17.21-27.14-25.82-41.15c-0.2-1.45-0.4-2.46-1.58-3.45c-1.24-0.97-1.93-1.82-2.59-3
	c0.02-0.83-0.18-1.26-0.82-1.38c-4.01-1.94-4.86-5.95-7.2-9.49c0.32-0.63,0.45-0.84,0.36-1.07c-0.1-0.23-0.2-0.35-0.68-0.42
	c-4.71-4.68-7.22-10.23-9.69-16.29c4.47-1.35,6.32,1.81,7.6,4.56c5.49,11.78,13.83,21.93,21.06,32.71
	c4.68,6.98,8.49,14.51,13.36,21.28C397.29,459.59,399.23,466.81,406.09,471.26z"/>
<path class="st35" d="M48.2,426.15c-1.94,0.15-2.16-1.13-2.15-2.94c1.72-5.63,5.56-7.05,11.28-6.81c10,0.42,20.05,0.3,30.06,0.03
	c4.32-0.11,5.77,1.49,5.48,5.68c-13.25,0.46-26.51,0.39-39.76,0.29C50.64,422.39,48.43,422.58,48.2,426.15z"/>
<path class="st36" d="M454.06,476.33c0.62,0.15,0.68,0.38,0.8,0.99c0.13,3.99-1.38,5.55-5.68,5.45
	c-11.44-0.28-22.89-0.16-34.34-0.05c-3.47,0.03-5.99-0.47-5.31-5.01C424.27,477.06,438.92,478.4,454.06,476.33z"/>
<path class="st37" d="M-15.99,631.44c0.69-2.89-0.35-5.1-0.95-7.84c1.89-0.46,4.36-0.34,4.56,1.54c0.48,4.52,3.72,8.62,4.14,12.33
	c1.01,8.89,6.48,15.44,10.16,23.4c-0.69,1.02-1.54,1.25-3.18,1.08C-9.6,653.09-12.39,642.36-15.99,631.44z"/>
<path class="st38" d="M277.09,280.65c-0.63,0.7-1.39,0.9-2.36,1.4c-1.22,0.47-2.23,0.62-3.72,0.93
	c-12.55,1.31-24.64,0.68-37.37,0.32c-2.06-0.41-3.48-0.66-5.41-1.06c-0.52-0.16-0.5-0.66-0.53-0.92c0.3-2.5,2.02-2.72,3.99-2.72
	c14.17,0.02,28.35,0.02,42.52,0.04C275.42,278.64,276.43,279.03,277.09,280.65z"/>
<path class="st38" d="M531.64,280.64c-0.62,0.69-1.37,0.87-2.33,1.35c-0.87,0.37-1.52,0.43-2.64,0.38c-15.61,0.26-30.74,0-46.5-0.02
	c-1.27,0.03-1.91,0.11-3.02,0.05c-1.28-0.07-2.03-0.24-2.92-0.97c0.03-2.56,1.73-2.83,3.72-2.83c16.94,0.02,33.87,0.02,50.81,0.03
	C529.97,278.64,530.99,279.03,531.64,280.64z"/>
<path class="st39" d="M58.2,83.64c2.51,0.79,4.19-1.47,6.73-1.07c-2.93,4.36-7.29,7.76-12.88,8.28c-4.91,0.45-8.57,1.91-11.62,5.38
	c-2.84,3.23-7.43,3.39-11.73,5.01c-0.99-0.46-1.27-1.01-1.28-2.11c3.26-5.53,9.44-6.61,14.64-9.75c1.39-0.28,2.22-0.7,3.56-1.1
	c0.9-0.26,1.36-0.4,2.18-0.56c3.29-0.77,5.83-2.37,9.13-3.39C57.57,84.1,57.76,83.98,58.2,83.64z"/>
<path class="st40" d="M597.34,478.64c0.61,0.75,0.86,1.08,1.54,1.45c0.05,2.4-1.65,2.68-3.64,2.68
	c-13.28-0.02-26.55-0.02-39.83-0.04c-1.21,0-2.22-0.4-2.86-2.02c0.69-1.2,1.39-2.01,2.91-2.67c2.41-0.37,4.29-0.48,6.66,0.36
	c9.19,0.83,17.83,0.66,27.05,0.11C592.1,477.52,594.47,477.41,597.34,478.64z"/>
<path class="st41" d="M164.4,339.16c9.18,2.06,18.61,0.01,27.89,0.73c2.42,0.19,5.87-1.36,6.5,3.23c-9.73,0.54-19.5,0.49-29.26,0.59
	C166.41,343.74,164.03,343.33,164.4,339.16z"/>
<path class="st33" d="M592.32,86.16c8.15,1.13,14.86,5.85,23,8.56c0.79,0.29,1.08,0.62,1.66,1.13c2.98,1.97,6.82,2.52,7.94,6.55
	c-0.1,0.6-0.27,0.76-0.71,1.17c-8.14-2.03-15.1-5.99-21.38-10.75c-2.21-1.68-3.79-2.31-6.45-1.87
	C592.9,91.52,592.11,89.41,592.32,86.16z"/>
<path class="st42" d="M401.89,479.85c0.25,2.66-1.45,2.92-3.44,2.92c-14.19-0.02-28.38-0.02-42.57-0.04c-1.21,0-2.22-0.4-2.86-2.03
	c2.25-2.26,5.07-1.73,7.74-1.74c12.24-0.04,24.47-0.04,37.37,0.01C399.68,479.02,400.54,479.17,401.89,479.85z"/>
<path class="st30" d="M400.01,479.96c-15.5,0.25-30.66,0.25-46.47,0.24c-0.62-0.64-0.59-1.28-0.47-2.38
	c15.68-0.35,31.26-0.24,47.5-0.06c0.66,0.06,0.62,0.02,0.59,0.01C401.59,478.67,401.07,479.23,400.01,479.96z"/>
<path class="st43" d="M238.38,478.4c2.33-0.27,4.11-0.34,6.4-0.3c7.96,2.03,15.68-0.24,23.66,1.77c0.3,2.12-0.82,2.89-2.72,2.88
	c-12.82-0.04-25.64-0.04-38.46-0.15c-0.7-0.01-1.38-0.89-2.2-1.88C228.93,477.63,233.61,479.77,238.38,478.4z"/>
<path class="st34" d="M625.15,688.44c-5.84,6.37-14.1,9.99-22.6,14.05c-0.32-1.14-0.55-3.18,0.09-3.45
	C610.2,695.88,616.01,689.62,625.15,688.44z"/>
<path class="st44" d="M65.23,708.43c-4.68-0.84-9.34-2.22-14.51-3.72c-0.22-0.88-0.18-1.93,0.41-2.37
	C54.86,699.55,64.19,703.27,65.23,708.43z"/>
<path class="st45" d="M10.49,681.11c-0.95-1.44-1.54-2.69-2.46-4.22c-1.63-0.97-2.04-2.25-3.02-3.62c-1.29-1.71-2.27-3.18-3.28-5.07
	c0.97-1.16,2.06-1.39,3.81-0.77c2.37,5.08,8.25,7.7,8.84,13.69c-0.16,0.66-0.34,0.86-0.92,1.11
	C12.21,682.16,11.51,681.78,10.49,681.11z"/>
<path class="st29" d="M397.6,291.47c0.81-2.15,1.72-3.84,2.76-5.99c-0.29-1.24-0.21-1.98,0.73-2.89c2.34,0.06,4.52-0.68,6.81,1.14
	c-2.86,2.97-3.72,7.17-7.77,9.99C398.74,293.51,398.12,292.81,397.6,291.47z"/>
<path class="st30" d="M238.45,477.93c-3.15,4.31-8.06,1.36-12.89,2.29c-4.47-2.07-3.81-5.01-2.19-8.51c0.97-0.94,1.79-1.1,3.2-0.51
	c-0.15,2.06-0.8,3.73-1.87,6.46C229.71,477.67,233.84,477.67,238.45,477.93z"/>
<path class="st30" d="M268.97,479.76c-7.67-0.06-15.44,1.57-23.35-1.04c7.07-2.21,14.58-0.75,22.66-1.21
	C268.94,478.13,268.96,478.72,268.97,479.76z"/>
<path class="st29" d="M393.29,304.07c-0.96-0.73-1.42-1.52-2.09-2.72c0.02-2.64,1.59-4.23,3.25-6.18c1.56-0.67,2.76-1.06,4.62-0.33
	C397.33,297.91,397.84,302.25,393.29,304.07z"/>
<path class="st46" d="M44.37,700.73c-1.85-0.03-3.76-0.55-6.17-1.01c-1.03-0.12-1.56-0.29-2.45-0.67c-1.25-0.4-2.04-0.76-2.97-1.69
	c-0.55-0.7-0.83-1.06-1.11-1.76C37.26,693.92,41.12,696.36,44.37,700.73z"/>
<path class="st28" d="M227.44,471.48c-1.13,0.02-1.91-0.07-3.27-0.18c-0.01-4.07,1.54-7.64,5.75-10.18
	c0.49-0.06,0.53-0.03,0.54-0.01c1.89,2.3,0.27,4.15-1,6.6C229.44,469.55,228.87,470.56,227.44,471.48z"/>
<path class="st47" d="M451.88,711.77c-4.52,0.52-9.2,0.57-14.51,0.52C441.47,708.07,446.59,709.61,451.88,711.77z"/>
<path class="st46" d="M31.75,694.65c-2.81,0.3-4.69-1.28-7.1-2.82c-1.52-0.68-2.14-1.48-2.28-2.97
	C26.8,688.67,31.54,688.3,31.75,694.65z"/>
<path class="st46" d="M12.84,682.26c0.36-0.47,0.6-0.52,1.19-0.63c3.8,0.58,6.62,1.86,7.23,5.99c-0.15,0.67-0.4,0.9-1.15,0.99
	c-1.48-0.55-2.46-0.98-3.78-1.61C14.4,685.76,13.49,684.26,12.84,682.26z"/>
<path class="st47" d="M103.77,711.76c-3.16,0.52-6.47,0.58-10.4,0.55C95.99,708.07,99.79,709.54,103.77,711.76z"/>
<path class="st47" d="M363.84,711.79c-2.27,0.49-4.68,0.54-7.69,0.49C357.85,708.42,360.73,709.46,363.84,711.79z"/>
<path class="st47" d="M162.95,711.76c-2.27,0.49-4.7,0.54-7.72,0.47C156.99,708.49,159.84,709.43,162.95,711.76z"/>
<path class="st48" d="M562.35,478.54c-2.22,0.37-4.13,0.35-6.61,0.36c-1.4,0-2.13-0.24-3.03-1.01c-0.25-0.52-0.22-0.77-0.05-1.37
	c2.97-0.17,5.78,0.01,8.99,0.51C562.25,477.62,562.46,477.88,562.35,478.54z"/>
<path class="st45" d="M-1.85,662.34c0.78-0.62,1.65-0.77,3.17-0.97c1.88,0.67,2.05,1.81,2.08,3.46c-0.09,1.12-0.39,1.72-1.3,2.55
	c-0.94,0.03-1.46-0.25-2.39-0.71C-1.05,665.27-1.4,664.04-1.85,662.34z"/>
<path class="st7" d="M27.73,98.65c0.43,0.74,0.44,1.27,0.45,2.2c-0.22,3.12-2.4,2.95-4.96,2.97c-0.51,0.01-0.78-0.27-0.91-0.41
	C22.71,100.59,24.5,99.06,27.73,98.65z"/>
<path class="st47" d="M178.1,711.72c-1.82,0.5-3.79,0.59-6.34,0.58C172.95,708.77,175.32,709.21,178.1,711.72z"/>
<path class="st47" d="M151.96,711.66c-1.81,0.52-3.78,0.64-6.34,0.66C146.76,708.75,149.15,709.26,151.96,711.66z"/>
<path class="st32" d="M399.64,294.85c-1.22,0.29-2.42,0.27-4.22,0.18c0.03-1.27,0.66-2.48,1.68-3.85c1.07,0.49,1.75,1.15,2.51,2.28
	C399.7,293.92,399.66,294.54,399.64,294.85z"/>
<path class="st47" d="M318.47,711.77c-1.4,0.45-2.92,0.5-5.02,0.46C314.26,709.15,316.13,709.25,318.47,711.77z"/>
<path class="st47" d="M189.13,711.69c-1.38,0.51-2.9,0.62-4.99,0.64C184.8,709.12,186.7,709.27,189.13,711.69z"/>
<path class="st47" d="M209.76,711.77c-1.39,0.47-2.91,0.54-5,0.52C205.51,709.13,207.39,709.24,209.76,711.77z"/>
<path class="st9" d="M19.82,688.85c0.09-0.45,0.37-0.53,1.1-0.7c0.44-0.08,0.99,0.11,1.26,0.21c0.85,0.89,1.42,1.67,2.06,2.81
	C22.22,691.81,21.13,690.49,19.82,688.85z"/>
<path class="st47" d="M512.5,711.78c-0.97,0.47-2.05,0.55-3.66,0.54C509.12,709.69,510.39,709.03,512.5,711.78z"/>
<path class="st26" d="M473.66,281.35c1.08-0.03,1.82,0.15,2.79,0.63c-0.39,0.76-1.01,1.22-2.04,1.71c-0.65,0.02-0.9,0.01-1.5-0.03
	C472.81,282.94,473.07,282.25,473.66,281.35z"/>
<path class="st33" d="M581.96,84.64c-0.64-0.52-0.65-1.03-0.65-1.94c1.68-0.44,3.31-0.35,4.89,1.15
	C585.15,84.39,583.87,84.51,581.96,84.64z"/>
<path class="st27" d="M400.14,480.22c-0.09-0.61,0.28-1.22,0.82-2.14c0.77-0.34,1.36-0.37,2.39-0.41c0.21,0.71-0.03,1.42-0.61,2.36
	C401.8,480.24,401.19,480.23,400.14,480.22z"/>
<path class="st37" d="M1.69,667.7c0.28-0.62,0.57-1.22,1.29-2.13c1.21,0.28,1.99,0.87,2.93,1.78c-0.93,0.36-2.02,0.4-3.65,0.43
	C1.71,667.77,1.71,667.72,1.69,667.7z"/>
<path class="st49" d="M400.98,282.29c0.32,0.78,0.17,1.49-0.23,2.46c-0.96-0.18-1.66-0.64-2.47-1.49c0.14-0.59,0.38-0.77,1.01-1.2
	C399.96,281.95,400.24,282.08,400.98,282.29z"/>
<path class="st26" d="M552.43,478.05c0.77-0.2,1.53,0.03,2.52,0.58c-0.42,0.72-1.06,1.13-2.11,1.56
	C552.42,479.63,552.42,479.05,552.43,478.05z"/>
<path class="st12" d="M12.64,681.67c1.31,1.55,2.28,2.92,3.3,4.7c-3.13-0.01-4.76-2.02-5.84-5
	C10.86,681.12,11.58,681.3,12.64,681.67z"/>
<path class="st12" d="M4.66,673.47c1.68-0.13,2.3,1.15,3.04,2.74C5.53,676.84,4.92,675.54,4.66,673.47z"/>
<path class="st9" d="M32.52,697.42c0.86-0.02,1.73,0.37,2.74,1.08C34.12,699.29,33.15,698.99,32.52,697.42z"/>
<path class="st50" d="M28.58,98.64c-3.08,0.42-3.77,3.11-6.17,4.29c-1.14,0.57-2.05,0.8-3.41,0.96c5.26-8.05,14.34-11.6,23.67-15.49
	c0.71,0.21,0.91,0.42,0.86,0.99C39.04,93.37,32.67,93.99,28.58,98.64z"/>
<path class="st50" d="M-3.2,130.25c-0.26,0.35-0.85,0.38-1.15,0.41c0.22-4.46,2.47-7.94,7.18-10.28
	C2.43,124.2-1.65,126.27-3.2,130.25z"/>
<path class="st50" d="M17.12,104.04c-1.17,3.32-4.18,5.4-7.41,7.75C9.59,107.52,12.98,105.63,17.12,104.04z"/>
<path class="st3" d="M56.91,84.03c-1.65,2.67-4.45,3.92-8.28,3.89C49.97,84.65,53.31,84.43,56.91,84.03z"/>
<path class="st50" d="M8.31,112.73c0.3,2.79-1.68,4.69-4,6.77C3.56,116.53,5.13,114.38,8.31,112.73z"/>
<path class="st3" d="M43.74,89.74c-0.49-0.22-0.51-0.45-0.55-1.01c0.61-1.14,1.46-1.32,2.66-0.84
	C45.91,89.14,45.16,89.55,43.74,89.74z"/>
<path class="st3" d="M76.31,80.12c0.14,1.62-0.75,2.16-2.48,1.49C73.86,80.18,74.71,79.85,76.31,80.12z"/>
<path class="st51" d="M81.24,465.4c-11.68-3.87-16.22-12.82-20.68-21.92c-2.46-5.03-4.26-10.14-3.99-16.29c10.62,0,21.43,0,32.28,0
	c4.87,12.69,21.68,27.92,40.51,26.21c8.72-0.79,17.91,2.26,26.13-2.56c11.03-6.48,20.87-13.74,19.91-27.69
	c-0.5-7.29-4.7-12.83-10.57-16.88c-8-5.53-16.83-9.45-26.79-11.9c-9.58-2.35-19.12-5.42-28.47-8.94c-6.7-2.52-13.98-4.49-20.56-7.41
	c-9.63-4.28-21.35-8.07-23.74-18.8c-2.32-10.45-7.25-20.95-1.99-32.59c2.53-5.61,1.9-12.57,6.15-18.16
	c6.25-8.23,15.07-13.14,24.59-17.18c5.78-2.45,11.63-4.72,18.35-3.81c5.21,0.71,8.49-4.6,14.15-3.89
	c11.31,1.42,22.29,4.19,33.47,6.09c11.31,1.92,20.34,7.08,28.21,14.56c6.85,6.52,9.94,14.76,12.76,23.13
	c1.36,4.03-1.47,4.87-4.86,4.81c-9.32-0.17-18.76,0.98-27.88-1.82c-2.68-11.49-21.79-20.83-33.19-21.32
	c-13.36-0.58-25.35,1.28-34.78,10.65c-9.93,9.87-8.81,17.68-0.3,27.33c5.75,6.53,13.29,10.7,21.83,13.42
	c11.34,3.62,22.88,6.42,34.53,9.12c15.78,3.66,31.56,8.58,42.4,21.26c3.74,4.37,3.8,10.53,6.37,14.68
	c4.36,7.05,4.26,14.06,3.02,20.62c-2.44,12.82-6.72,25.1-18.52,34.18c-9.09,7-19.74,10.38-30.25,14.35
	c-1.61,0.61-3.6,0.44-5.42,0.45c-14.44,0.03-28.94,0.75-43.31-0.23C100.41,474.17,90.3,471.45,81.24,465.4z"/>
<path class="st35" d="M136.08,400.18c-10.34-0.1-19.72-4.35-29.44-8.41C116.71,392.88,126.13,396.7,136.08,400.18z"/>
<path class="st52" d="M213.31,415.53c3.05,3.07,1.71,6.78,0.78,10.75C211.59,423.14,212.75,419.49,213.31,415.53z"/>
<path class="st35" d="M166.71,433.52c0.01-3.55,0.43-7.38,1.22-11.57C171.22,425.76,169,429.49,166.71,433.52z"/>
<path class="st35" d="M144.16,447.87c2.82-3.35,7.57-3.01,12.15-4.37C153.52,446.77,149.07,447.37,144.16,447.87z"/>
<path class="st35" d="M52.44,440.27c-3.57-2.47-4.38-6.34-4.17-10.74C50.98,432.42,51.25,436.27,52.44,440.27z"/>
<path class="st35" d="M117.92,446.05c2.88-2.57,5.25-0.47,7.88,1.31C123.08,448.69,120.75,447.05,117.92,446.05z"/>
<path class="st35" d="M148.48,404.01c-2.62,0.91-5.11,0.13-7.43-2.05C143.69,401.24,145.97,402.38,148.48,404.01z"/>
<path class="st53" d="M132.8,358.6c0.93-1.78,1.75-1.11,2.61,0.15C134.5,360.38,133.63,360.18,132.8,358.6z"/>
<path class="st53" d="M146.54,362.4c1.52-0.95,2.99-0.63,4.56,0.81C149.67,364.06,147.99,364.48,146.54,362.4z"/>
<path class="st35" d="M98.89,388.83c-1.08,0.74-2.29,0.79-3.25-0.91C96.81,387.14,97.75,387.78,98.89,388.83z"/>
<path class="st35" d="M155.31,406.7c-1.05,0.7-2.26,0.77-3.25-0.86C153.24,404.96,154.19,405.58,155.31,406.7z"/>
<path class="st35" d="M92.08,386.2c-1.14,0.75-2.41,0.83-3.31-1.05C89.73,385.09,90.78,385.47,92.08,386.2z"/>
<path class="st53" d="M164.42,367.66c1.07-0.95,2.07-0.47,3.26,0.58C166.69,369.09,165.53,369.17,164.42,367.66z"/>
<path class="st52" d="M212.6,431.62c1.26,0.82,0.97,1.79-0.2,2.95C211.25,433.76,211.39,432.78,212.6,431.62z"/>
<path class="st52" d="M211.18,437.05c1.58,0.88,0.81,1.71-0.31,2.69C210.01,438.98,210.01,438.1,211.18,437.05z"/>
<path class="st35" d="M95.08,427.08c0.58-0.26,1.29-0.33,0.66,0.7C95.48,427.9,95.08,427.39,95.08,427.08z"/>
<path class="st54" d="M467.07,433.69c-3.8,0.42-6.31,2.1-6.89,5.49c-0.89,5.17-3.3,9.91-4.43,15.08c-1.12,5.14-4.26,9.83-4.33,15.49
	c-0.03,2.16-3.96,2.64-6.37,2.71c-7.55,0.21-15.12,0.12-22.68,0.08c-4.54-0.02-6.45-3.8-4.3-5.85c4.99-4.74,3.72-10.97,6.11-16.25
	c2.18-4.82,3.22-10.56,5.1-15.35c2.79-7.1,5.09-14.37,7.79-21.5c3.6-9.53,7.59-18.99,10.28-28.75c3.25-11.8,8.02-23.1,11.89-34.69
	c3.37-10.1,6.8-20.16,9.15-30.5c1.86-8.19,6-15.7,7.78-23.96c0.71-3.29,3.63-5.89,8.63-5.73c11.9,0.39,23.84,0.37,35.74,0.02
	c5.58-0.16,8.45,3.1,9.46,6.7c2.77,9.88,7.28,19.22,10.35,28.83c2.71,8.48,6.34,16.85,8.53,25.62c1.74,6.92,4.71,14.06,7.78,20.87
	c3.91,8.67,6.29,17.8,9.55,26.66c4.75,12.88,10.37,25.54,14.2,38.65c2.26,7.74,4.1,15.65,6.54,23.38c0.32,1.02,0.69,2.02,1.08,3.01
	c3.47,8.88,3.47,8.77-6.67,8.92c-6.31,0.09-12.56-1.17-18.94-0.15c-4.24,0.68-6.26-1.58-7.45-5.63c-2.08-7.08-2.49-14.74-7.53-20.99
	c-0.81-1.01-0.45-2.86-0.54-4.33c-0.39-6.25-8.66-13.59-15.41-13.59c-19.48-0.01-38.96,0.09-58.43-0.08
	C468.76,427.8,466.44,428.78,467.07,433.69z"/>
<path class="st48" d="M538.27,435.41c-23.19-0.47-46.4,0.13-70.23,0.3c-0.7-0.15-0.8-0.41-0.94-1.06c-0.06-0.4,0.01-0.37-0.01-0.4
	c1.74-1.47,3.65-2.22,6.14-2.2c19.61,0.09,39.22,0.07,58.83,0.02C534.72,432.06,537.1,432.26,538.27,435.41z"/>
<path class="st26" d="M479.96,282.67c2.11-2.53,5.22-1.47,8.04-1.47c12.46,0,24.91,0.21,37.78,0.7c-3.11,2.55-7.05,1.33-10.77,1.36
	C503.47,283.34,491.92,283.12,479.96,282.67z"/>
<path class="st26" d="M562.45,479.32c-0.39-0.65-0.38-0.91-0.38-1.57c8.75-0.37,17.52-0.34,26.93-0.35c0.8,0.23,0.95,0.5,0.84,1.15
	C580.74,481.48,571.77,480.08,562.45,479.32z"/>
<path class="st48" d="M546.44,458.46c-4.75-5.11-4.99-12.11-7.01-18.76C543.79,445.01,544.37,451.75,546.44,458.46z"/>
<path class="st55" d="M466.35,438.12c1.16,3.58-0.08,6.94-2.26,10.44C462.97,445.04,464.01,441.59,466.35,438.12z"/>
<path class="st55" d="M462.71,451.09c1.5,3.68-1.03,6.73-2.79,10.27C459.17,457.86,460.26,454.48,462.71,451.09z"/>
<path class="st48" d="M590.16,478.88c-0.59-0.21-0.59-0.47-0.56-1.13c2.34-2.19,4.98-1.07,8.04-0.97c0.47,0.6,0.38,1.05,0.24,1.85
	C595.47,478.93,593.11,478.88,590.16,478.88z"/>
<path class="st48" d="M547.99,463.55c-1.48,0.02-2.23-0.69-1.46-2.28C547.81,461.46,548.16,462.2,547.99,463.55z"/>
<path class="st48" d="M550.59,471.32c-1.42-0.12-1.98-0.98-1.55-2.6C550.41,468.91,550.86,469.79,550.59,471.32z"/>
<path class="st48" d="M598.35,473.95c1.75,0.29,2.54,1.25,0.43,2.71C598.33,475.99,598.25,475.24,598.35,473.95z"/>
<path class="st56" d="M309.13,411.21c-0.26,0.34-0.36,0.53-0.47,0.55c-4.14-0.96-6.18,0.62-8.1,4.02
	c-6.13,10.84-13.18,21.25-19.06,32.2c-3.72,6.93-7.61,13.7-11.93,20.32c-1.72,2.63-3.88,3.89-6.35,3.98
	c-8.86,0.33-17.74,0.13-26.48,0.13c-1.69-4.87,1.12-8.29,3.02-11.3c9.35-14.82,18.72-29.63,28.99-43.94
	c7.13-9.93,13.59-20.31,19.89-30.72c2.14-3.54,2.35-8.48,0.1-11.66c-10.55-14.96-19.78-30.58-29.04-46.23
	c-7.04-11.89-15.69-22.94-22.31-35.09c-0.86-1.58-1.77-2.95-0.9-5.04c5.77,0.38,11.74-1.37,17.54,1.39c1.47,0.7,3.73,0.59,5.41,0.15
	c5.88-1.55,11.57-2.29,17.79,1.57c4.63,10.96,11.49,20.23,16.9,30.18c3.18,5.85,5.05,12.18,8.21,18.05
	c3.47,6.44,5.2,8.45,10.85,10.4c0.25-0.91,0.47-1.4,1.17-2.03c0.62-0.25,0.84-0.33,1.41-0.42c6.13-3.46,8.28-9.24,11.38-14.93
	c1.01-1.61,2.47-2.35,3.24-4.14c0.42-1.32,0.79-2.19,1.52-3.45c6.68-10.4,12.79-20.54,18.5-30.87c1.79-3.24,3.88-5.78,8.11-5.82
	c10.68-0.1,21.35-0.4,32.47,0.02c-2.72,7.68-8.22,13.75-12.53,20.46c-7.54,11.72-17.16,22.46-23.35,34.72
	c-5.77,11.44-12.7,21.91-20.56,32.03c-1.18,1.52-1.11,3.18-0.06,4.77c5.27,7.97,11.58,15.52,15.61,24
	c7.04,14.79,18.44,27.06,26.18,41.4c3.81,7.07,8.69,13.65,13.25,20.35c1,1.48,2.31,2.79,1.61,4.59c-0.96,2.45-3.42,1.64-5.34,1.69
	c-3.89,0.1-7.88-0.49-11.66,0.13c-13.79,2.23-21.16-2.81-27.35-14.77c-6.9-13.32-14.49-26.7-24.27-38.72
	c-2.22-2.72-2.34-7.03-8.2-6.57c-0.85-0.17-1.05-0.38-1.26-0.85c-0.87-1.14-1.7-2.06-2.07-3.28
	C310.44,409.29,310.18,410.23,309.13,411.21z"/>
<path class="st57" d="M233.24,283.55c11.84-2.04,23.96-0.82,36.67-0.68c0.19,0.72-0.23,1.6-0.66,1.62
	C257.32,284.79,245.37,285.77,233.24,283.55z"/>
<path class="st30" d="M229.75,468.03c-0.07-1.81,0.31-3.84,0.71-6.39c0.74-0.48,1.45-0.45,2.68-0.3
	C233.36,463.99,231.77,465.9,229.75,468.03z"/>
<path class="st30" d="M234.02,461.32c-1.08-2.24-0.89-4.29,2.58-5.28C237.07,458.08,235.86,459.68,234.02,461.32z"/>
<path class="st57" d="M277.69,287.41c1.72,0.08,2.43,1.22,2.7,3.08c-0.47,1.13-1.14,1.46-2.53,1.09c-0.51-0.31-0.48-0.37-0.46-0.4
	C277.44,290.07,277.46,288.99,277.69,287.41z"/>
<path class="st58" d="M391.6,288.45c-10.1,2.5-20.17,1.58-30.18,1.54c-4.86-0.02-7.63,0.82-9.78,5.62
	c-3.33,7.46-7.81,14.6-12.8,21.24c-2.16,2.88-0.94,7.51-6.08,8.93c-1.57,0.2-2.51-0.09-3.64-1.07
	c7.39-13.39,15.05-26.38,23.05-39.67c0.85-0.38,1.29-0.58,1.81-1.24c0.38-0.4,0.61-0.47,1.22-0.53c12.41,1.26,24.53-0.38,37.09,1.27
	C392.47,285.96,392.13,287.01,391.6,288.45z"/>
<path class="st49" d="M393.11,284.77c-12.47-0.32-24.69,1.03-37.18-1.04c12.16-1.92,24.71-1.03,37.86-0.8
	C394.08,283.67,393.74,284.15,393.11,284.77z"/>
<path class="st27" d="M371.32,427.28c1.16-0.27,1.91,0.39,2.02,2.13C372.68,429.22,372.05,428.48,371.32,427.28z"/>
<path class="st27" d="M360.55,411.81c0.44-0.24,1.22-0.5,0.79,0.62C360.95,412.44,360.79,412.28,360.55,411.81z"/>
<path class="st0" d="M368.29,423.05c0.3-0.77,0.74-0.96,0.92,0.24C368.97,423.5,368.74,423.42,368.29,423.05z"/>
<path class="st59" d="M277.3,291.79c0.72-0.57,1.39-0.6,2.56-0.76c0.49-0.13,0.55-0.07,0.57-0.03c0.47,1.28,1.17,2.42,2.11,3.85
	c0.32,0.26,0.19,0.34,0.25,0.3c0.76,0.52-0.72,1.77,1.17,2.27c0.47,0.4,0.61,0.59,0.87,1.1c-0.68,1.9,0.83,2.65,1.93,3.91
	c1.71,2.53,3.01,4.85,4.31,7.61c-0.36,0.6-0.51,0.8-0.45,1.04c0.07,0.25,0.15,0.38,0.6,0.45c1.04,1.08,1.74,2.08,2.61,3.41
	c0.23,0.76,0.42,1.14,0.94,1.73c1.23,2.42,2.23,4.59,3.44,7.16c0.39,1.4,1.16,2.08,1.89,3.2c1.25,2.42,2.35,4.51,3.63,7.01
	c1.15,3.75,3.23,6.54,5.48,9.7c0.36,1.22,0.64,2.01,1.08,3.2c0.87,1.59,2.45,1.65,3.68,2.81c1.85,1.42,2.29,2.83,0.36,3.77
	c-1.45,0.71-2.62-0.18-4.06-1.2c-6.11-4.35-9.74-10.48-11.92-16.71c-4.75-13.56-13.69-25.07-19.92-37.86
	C277.51,295.86,277.34,294.18,277.3,291.79z"/>
<path class="st59" d="M328.46,324.49c1.33,0.09,2.26,0.36,3.51,0.99c0.3,1.3,0.3,2.25,0.28,3.68c-1.06,1.42-2.67,1.43-3.93,2.71
	c-0.52,6.89-5.7,11.17-8.96,16.32c-0.18,0.28-1.6-0.11-2.85-0.35C318.12,339.14,324.11,332.36,328.46,324.49z"/>
<path class="st60" d="M309.51,343.73c-3.4-1.79-5.82-4.44-5.79-8.82C307.29,336.58,308.53,339.93,309.51,343.73z"/>
<path class="st57" d="M287.18,302.25c-2.5,0.33-4.06-0.43-2.62-3.26C286.54,299.32,286.71,300.68,287.18,302.25z"/>
<path class="st57" d="M282.86,294.68c-1.82,0.02-2.58-1.16-2.56-3.22C282.21,291.49,282.5,292.91,282.86,294.68z"/>
<path class="st60" d="M314.34,349.68c-1.6,0.18-3-0.15-3.85-1.93c1.04-0.3,2.13-0.2,3.74,0.06
	C314.64,348.41,314.54,348.87,314.34,349.68z"/>
<path class="st60" d="M300.33,326.97c-1.44,0.13-2.08-0.68-2.04-2.33C299.66,324.58,300.27,325.4,300.33,326.97z"/>
<path class="st57" d="M284.33,297.24c-1.52,0.49-2.52,0.18-1.64-1.82C283.36,295.68,283.86,296.27,284.33,297.24z"/>
<path class="st57" d="M295.01,316.57c-0.34,0.03-0.66-0.3-1-0.96C294.35,315.59,294.69,315.9,295.01,316.57z"/>
<path class="st24" d="M291.54,311.3c-0.48,0.24-1.27,0.44-0.71-0.65C291.07,310.49,291.51,310.98,291.54,311.3z"/>
<path class="st49" d="M353.74,283.51c0.11,0.35-0.16,0.74-0.83,1.18C352.8,284.34,353.07,283.94,353.74,283.51z"/>
<path class="st24" d="M309.39,411.53c-0.23-2.12,0.06-4.25,0.36-6.54c4.77,0.51,1.55,4.17,3.22,6.11
	C311.96,411.53,310.93,411.53,309.39,411.53z"/>
<path class="st61" d="M529.27,398.07c-4.98,6.79-12.06,5.36-18.62,5.42c-8.19,0.07-16.39-0.16-24.57,0.08
	c-4.85,0.14-8.21-1.54-10.58-5.81c-0.49-0.94-1.13-1.47-1.04-2.06c0.95-6.42,3.69-12.37,5.85-18.47c0.49-1.38,1.96-2.3,4.3-2.04
	c2.39,3.22,0.31,5.9-0.4,8.69c-0.97,3.83-3.22,7.43-2.67,11.51c3.08,2.04,6.37,1.34,9.48,1.37c8.67,0.08,17.34-0.04,26.01,0.06
	c3.65,0.04,6.18-1.05,7.74-4.74C529.83,391.65,530.74,393.99,529.27,398.07z"/>
<path class="st62" d="M484.85,375.36c-3.76,2.13-4.96,5.21-5.23,8.56c-0.36,4.47-3.56,8.05-4.16,12.9
	c-5.13-1.02-3.59-5.89-2.24-7.26c5.09-5.17,2.51-12.17,6.12-17.64c4.07-6.16,5.41-13.65,7.4-20.39c2.47-8.34,5.63-16.53,7.82-24.95
	c0.48-1.86,0.81-3.26,3.74-3.28c2.77,2.14,0.62,4.74,1.44,7.51c0.06,1.1-0.04,1.73-0.44,2.77c-3.94,3.54-3.77,8.15-5.1,12.07
	c-3,8.84-6.34,17.61-8.21,27.24C485.95,374.04,485.74,374.65,484.85,375.36z"/>
<path class="st63" d="M529.4,398.48c-0.48-2.35-0.02-4.88-3.5-6.31c-3.4-1.63-2.57-4.39-3.02-7.26c-0.92-4.55-0.02-9.06-3.98-12.79
	c-0.81-1.34-1.08-2.34-1.29-3.88c-0.15-2.83-0.42-5.01-1.48-7.23c-3.93-8.26-5.33-17.3-8.9-25.71c-1.31-3.1-1.14-6.62,0.54-10.31
	c6.75,2.77,6.42,9.63,6.85,14.21c0.6,6.47,4.58,11.42,5.84,17.48c1.2,5.77,2.38,11.92,4.69,17.42c2.48,5.89,2.82,12.38,6.36,17.89
	C533.22,394.65,534.26,397.12,529.4,398.48z"/>
<path class="st61" d="M507.74,324.37c0.07,13.16,6.36,24.58,10.28,36.52c0.76,2.3,1.38,4.37,0.73,7.23c-4.13-0.02-4.2-3.2-5.04-5.71
	c-3.66-10.91-7.25-21.84-10.7-32.66c-1.72-0.16-2.31,1.02-3.83,1.28c-3.19-2.36,0.01-4.58-0.37-7.28
	C501.93,321.53,504.79,321.59,507.74,324.37z"/>
<path class="st58" d="M328.58,332.19c-1.33-2.36-1.33-2.36,3.18-2.55C331.64,330.99,330.62,331.9,328.58,332.19z"/>
<path class="st64" d="M498.71,331.34c1.93-1.64,0.53-4.78,4.52-5.76c4.83,14.13,9.68,28.32,14.92,42.79
	c0.65,1.04,0.93,1.8,1.38,2.92c3.62,3.52,1.97,8.39,4.57,12.25c0.25,2.82,0.62,5.18,1.17,8.04c1.21,5.43-0.69,7.03-6.3,6.81
	c-11.66-0.45-23.35-0.24-35.03-0.06c-5.33,0.08-6.44-1.62-4.58-6.17c2.1-5.13,3.58-10.49,5.16-16.2c0.03-1,0.22-1.54,0.44-2.51
	c4.14-13.41,7.86-26.5,13-39.7C498.38,332.8,498.55,332.28,498.71,331.34z"/>
<path class="st61" d="M497.75,333.44c-2.56,13.25-6.91,26.25-12.39,39.32c-3.6-3.36,0.65-5.98,1.37-8.96
	c2.27-9.43,5.43-18.67,8.37-27.95C495.38,334.96,496.53,334.31,497.75,333.44z"/>
<path class="st61" d="M524.2,383.48c-3.38-2.72-3.21-7.08-4.62-11.35C525.95,373.75,522.38,379.37,524.2,383.48z"/>
<path class="st0" d="M494.92,363.2c3.14-7.13,5.04-14.07,5.66-21.31c0.61-0.13,1.22-0.26,1.83-0.38
	c5.81,16.57,11.61,33.14,17.73,50.58c-10.48,0-20.86,0.16-31.23-0.09c-3.35-0.08-2.86-3.04-2.25-4.96
	C489.14,379.19,491.89,371.4,494.92,363.2z"/>
</svg>
